#!OML:ASF F:\VICON\USERDATA\INSTALL\rory3\rory3.ASF
:FULLY-SPECIFIED
:DEGREES
316
root -8.11252 18.235 -1.51269 330.702 88.8299 323.435
lowerback -12.2427 -2.11652 9.05602
upperback -11.5401 -2.74424 0.912105
thorax -5.93575 -1.68896 -4.29358
lowerneck -9.55032 -17.9397 -14.9066
upperneck 30.7679 -23.3342 1.8653
head 14.0907 -11.5145 -0.727193
rclavicle 2.78299e-015 9.54166e-015
rhumerus -6.06797 -20.2634 1.67219
rradius 13.1759
rwrist 55.5005
rhand -3.03075 17.3434
rfingers 7.12502
rthumb 22.6845 -11.3433
lclavicle 2.78299e-015 9.54166e-015
lhumerus -151.614 -142.463 164.217
lradius 29.6109
lwrist -38.9741
lhand -9.14605 25.7887
lfingers 7.12502
lthumb 16.8058 55.0814
rfemur 132.282 -203.755 -239.703
rtibia 33.7468
rfoot -67.4416 -4.54731
rtoes 60.6432
lfemur -4.86203 -3.17547 -13.9781
ltibia 20.6217
lfoot -0.373612 26.7935
ltoes -14.3714
317
root -7.97516 18.4957 -1.28985 246.813 92.0818 239.537
lowerback -14.1654 -2.82459 7.20266
upperback -11.608 -3.68367 0.341825
thorax -4.96773 -2.02016 -4.02443
lowerneck -10.0953 -17.4869 -13.6842
upperneck 31.8372 -22.27 -0.0534883
head 14.1065 -11.1505 -1.42798
rclavicle -8.26944e-014 1.51076e-014
rhumerus -6.44802 -36.4481 4.38503
rradius 12.3842
rwrist 73.3113
rhand 2.42842 13.0996
rfingers 7.12502
rthumb 27.9142 -14.8457
lclavicle -8.26944e-014 1.51076e-014
lhumerus -154.644 -143.803 165.542
lradius 28.3736
lwrist -40.8447
lhand -3.3122 26.7422
lfingers 7.12502
lthumb 22.4143 55.4617
rfemur 135.753 -205.239 -241.885
rtibia 32.7751
rfoot -69.9217 0.664147
rtoes 61.0807
lfemur -2.70126 -4.88665 -14.8793
ltibia 16.8286
lfoot -21.144 24.9371
ltoes 47.8796
318
root -7.84725 18.7488 -1.06045 258.5 93.653 251.301
lowerback -15.8107 -3.11589 6.38595
upperback -11.722 -4.06458 -0.301427
thorax -4.247 -2.15503 -4.37718
lowerneck -9.83457 -17.6239 -14.3514
upperneck 32.6948 -22.2891 -0.461587
head 14.4825 -11.2658 -1.54366
rclavicle 2.5842e-014 -4.77083e-015
rhumerus -9.24163 -50.2245 9.06502
rradius 12.8108
rwrist 89.3636
rhand 7.16076 9.0673
rfingers 7.12502
rthumb 32.4287 -18.0517
lclavicle 2.5842e-014 -4.77083e-015
lhumerus -155.905 -143.15 164.987
lradius 27.1657
lwrist -39.0472
lhand -2.40983 29.4395
lfingers 7.12502
lthumb 23.2803 58.0521
rfemur 138.597 -208.283 -243.62
rtibia 32.2866
rfoot -73.061 6.92033
rtoes 61.3789
lfemur -0.374563 -5.67511 -14.7929
ltibia 13.9209
lfoot -32.2724 17.2021
ltoes 53.4748
319
root -7.77363 18.8848 -0.77489 259.035 99.5058 252.213
lowerback -16.3093 -3.38015 1.29513
upperback -11.9907 -3.81504 -1.81664
thorax -3.92309 -1.75529 -3.13649
lowerneck -9.27634 -17.5948 -15.5005
upperneck 33.3162 -22.1819 -0.25855
head 14.8577 -11.3117 -1.3212
rclavicle 6.59965e-014 3.57812e-014
rhumerus -13.5142 -57.3564 15.3191
rradius 13.7295
rwrist 98.6752
rhand 12.3342 4.73216
rfingers 7.12502
rthumb 37.3367 -21.2445
lclavicle 6.59965e-014 3.57812e-014
lhumerus -157.622 -144.101 165.896
lradius 26.2148
lwrist -40.3561
lhand -2.27151 31.8979
lfingers 7.12502
lthumb 23.413 60.4936
rfemur 140.533 -207.124 -248.841
rtibia 31.9853
rfoot -73.1592 7.46871
rtoes 61.306
lfemur 2.51066 -6.1998 -19.2126
ltibia 11.8477
lfoot -29.8005 24.0474
ltoes 48.9745
320
root -7.65249 19.1575 -0.537323 267.724 96.006 261.511
lowerback -17.6336 -4.00659 4.84401
upperback -11.6657 -5.10782 -1.35033
thorax -3.31024 -2.59381 -4.87442
lowerneck -9.11717 -17.4232 -13.7585
upperneck 33.5845 -21.8277 -1.76594
head 14.4206 -11.1881 -1.96155
rclavicle 7.23576e-014 2.54444e-014
rhumerus -16.7997 -59.6839 19.3882
rradius 14.5222
rwrist 103.2
rhand 17.5306 -0.170122
rfingers 7.12502
rthumb 42.2281 -24.6833
lclavicle 7.23576e-014 2.54444e-014
lhumerus -160.409 -145.138 166.503
lradius 25.4027
lwrist -42.2272
lhand 2.34461 31.2635
lfingers 7.12502
lthumb 27.8341 59.2218
rfemur 144.268 -215.636 -245.106
rtibia 32.1776
rfoot -79.8846 17.6334
rtoes 61.3206
lfemur 4.19729 -3.30262 -12.8256
ltibia 11.5334
lfoot -15.1048 34.9673
ltoes 48.1838
321
root -7.57809 19.3325 -0.263591 272.11 96.5568 266.974
lowerback -17.7601 -4.6698 4.15995
upperback -11.3878 -5.91096 -1.6682
thorax -2.9927 -2.96691 -4.95438
lowerneck -8.40238 -17.466 -14.707
upperneck 33.7798 -21.9722 -1.31465
head 14.5885 -11.3071 -1.67479
rclavicle -3.97569e-015 1.59028e-014
rhumerus -21.2157 -61.6969 24.7159
rradius 15.3117
rwrist 108.4
rhand 21.928 -3.4408
rfingers 7.12502
rthumb 46.3267 -26.398
lclavicle -3.97569e-015 1.59028e-014
lhumerus -162.844 -145.654 167.08
lradius 24.3412
lwrist -43.2135
lhand 4.55145 31.2711
lfingers 7.12502
lthumb 29.942 58.8689
rfemur 147.631 -219.597 -244.055
rtibia 32.3927
rfoot -83.8467 22.4525
rtoes 61.2805
lfemur 5.58661 -0.785339 -10.7032
ltibia 12.9375
lfoot 2.99291 42.4084
ltoes 38.2627
322
root -7.51497 19.5077 -0.00814229 276.359 95.6525 272.509
lowerback -17.6094 -4.92956 5.29022
upperback -10.9628 -6.44892 -1.87747
thorax -2.84998 -3.31424 -5.87676
lowerneck -6.8218 -17.5689 -16.1885
upperneck 33.5442 -22.276 -0.704155
head 14.5078 -11.5704 -1.18997
rclavicle -6.0033e-014 -3.33958e-014
rhumerus -27.9416 -64.213 32.1753
rradius 15.9364
rwrist 114.799
rhand 25.4595 -5.4586
rfingers 7.12502
rthumb 49.5827 -26.8977
lclavicle -6.0033e-014 -3.33958e-014
lhumerus -164.673 -145.867 167.248
lradius 23.4905
lwrist -44.1074
lhand 6.30577 31.6599
lfingers 7.12502
lthumb 31.6146 58.9424
rfemur 150.951 -223.948 -240.857
rtibia 32.8198
rfoot -88.3611 27.0352
rtoes 61.4174
lfemur 5.92882 0.83179 -6.97867
ltibia 16.8111
lfoot 18.1447 44.1874
ltoes 28.0532
323
root -7.46801 19.6352 0.242232 271.778 95.6673 269.958
lowerback -16.4532 -4.47297 5.72334
upperback -10.2886 -5.95533 -2.44283
thorax -2.75984 -3.12276 -6.59428
lowerneck -6.06168 -18.0356 -17.4289
upperneck 33.9267 -22.9829 -0.47366
head 14.8317 -11.9831 -1.08582
rclavicle -1.09729e-013 -7.15625e-014
rhumerus -31.6078 -59.2094 36.2965
rradius 16.4609
rwrist 112.682
rhand 30.7909 -8.5747
rfingers 7.12502
rthumb 54.4166 -27.1271
lclavicle -1.09729e-013 -7.15625e-014
lhumerus -164.916 -145.686 167.438
lradius 22.9745
lwrist -44.3185
lhand 9.38033 31.9075
lfingers 7.12502
lthumb 34.5384 58.5701
rfemur 154.094 -226.42 -238.394
rtibia 32.8051
rfoot -90.9791 29.1509
rtoes 61.5204
lfemur 7.02626 1.92551 -4.3767
ltibia 21.3984
lfoot 28.3655 43.6648
ltoes 16.7734
324
root -7.42152 19.7478 0.516481 266.057 94.983 266.301
lowerback -15.1674 -5.37219 5.51324
upperback -9.77988 -7.14747 -1.9545
thorax -2.95922 -3.71621 -5.97502
lowerneck -5.3208 -17.4697 -17.305
upperneck 33.9153 -22.0934 -0.953971
head 14.5017 -11.6855 -1.00491
rclavicle 4.01545e-014 1.82882e-014
rhumerus -33.1562 -60.1878 37.7293
rradius 16.4666
rwrist 116.032
rhand 32.9075 -9.41318
rfingers 7.12502
rthumb 56.3002 -26.5677
lclavicle 4.01545e-014 1.82882e-014
lhumerus -169.191 -146.273 168.839
lradius 22.432
lwrist -46.2961
lhand 12.3596 31.4087
lfingers 7.12502
lthumb 37.3608 57.379
rfemur 157.351 -229.593 -235.007
rtibia 32.5437
rfoot -93.5156 31.4282
rtoes 61.4721
lfemur 7.90697 3.5188 -0.428166
ltibia 26.5189
lfoot 41.2192 36.4328
ltoes -3.73254
325
root -7.38385 19.8419 0.789119 254.76 94.6223 256.869
lowerback -14.0384 -5.69182 5.39631
upperback -9.14544 -7.59804 -1.83328
thorax -2.8905 -3.9424 -5.73682
lowerneck -4.84675 -17.279 -17.5085
upperneck 34.2436 -21.7689 -1.21639
head 14.5232 -11.6145 -0.988178
rclavicle 6.32135e-014 2.46493e-014
rhumerus -37.3613 -61.4357 41.8301
rradius 16.394
rwrist 118.903
rhand 34.1619 -8.95309
rfingers 7.12502
rthumb 57.4047 -25.1969
lclavicle 6.32135e-014 2.46493e-014
lhumerus -172.04 -146.239 169.549
lradius 22.0261
lwrist -45.793
lhand 11.9801 32.002
lfingers 7.12502
lthumb 37.0019 58.066
rfemur 160.132 -232.611 -232.189
rtibia 32.0153
rfoot -95.4345 33.4441
rtoes 61.4749
lfemur 8.72046 4.89868 3.71656
ltibia 31.5949
lfoot 38.9379 38.7414
ltoes 3.8755
326
root -7.35184 19.917 1.05947 237.514 94.5422 241.332
lowerback -13.1276 -5.70164 5.23015
upperback -8.34492 -7.64941 -1.64637
thorax -2.45833 -3.94931 -5.4043
lowerneck -4.86414 -17.3337 -17.7619
upperneck 34.8357 -21.6829 -1.61261
head 14.781 -11.648 -1.13875
rclavicle -2.42517e-014 2.38542e-014
rhumerus -42.8771 -62.6462 47.3524
rradius 16.057
rwrist 120.443
rhand 34.1302 -8.33516
rfingers 7.12502
rthumb 57.3769 -24.6028
lclavicle -2.42517e-014 2.38542e-014
lhumerus -174.411 -145.801 170.301
lradius 21.5504
lwrist -43.2567
lhand 10.3938 32.9071
lfingers 7.12502
lthumb 35.4998 59.3449
rfemur 162.326 -234.694 -229.623
rtibia 31.3101
rfoot -96.4195 34.7988
rtoes 61.6143
lfemur 9.43412 5.70592 8.10154
ltibia 36.6128
lfoot 39.5578 38.4855
ltoes 6.96231
327
root -7.32303 19.9721 1.32655 218.287 95.0351 223.74
lowerback -12.17 -5.48351 5.03535
upperback -7.59975 -7.38588 -1.35441
thorax -2.06122 -3.79539 -4.91781
lowerneck -5.15442 -17.6251 -18.7826
upperneck 35.9362 -21.7988 -1.97471
head 15.5008 -11.831 -1.32684
rclavicle 1.90833e-014 -2.14687e-014
rhumerus -48.1821 -63.1709 52.9631
rradius 15.3177
rwrist 120.265
rhand 33.2093 -7.90243
rfingers 7.12502
rthumb 56.5668 -24.8437
lclavicle 1.90833e-014 -2.14687e-014
lhumerus -176.538 -145.77 171.456
lradius 21.1581
lwrist -41.3153
lhand 10.9142 33.0522
lfingers 7.12502
lthumb 35.9929 59.3704
rfemur 163.949 -235.639 -227.358
rtibia 30.4732
rfoot -96.5479 34.6582
rtoes 61.7041
lfemur 10.2113 6.29237 12.6006
ltibia 41.3815
lfoot 46.5379 31.4614
ltoes -2.91726
328
root -7.29858 20.0114 1.56574 198.215 95.9816 205.123
lowerback -11.1181 -5.41426 5.69542
upperback -7.10768 -7.36778 -1.23568
thorax -2.17594 -3.81836 -5.07012
lowerneck -4.31244 -17.1893 -18.2805
upperneck 36.2004 -21.3683 -2.01018
head 15.3209 -11.6209 -1.21677
rclavicle -1.03368e-014 -4.77083e-015
rhumerus -48.9223 -62.0589 52.3724
rradius 14.8429
rwrist 116.674
rhand 32.6823 -7.92971
rfingers 7.12502
rthumb 56.1009 -25.2409
lclavicle -1.03368e-014 -4.77083e-015
lhumerus -179.215 -147.391 172.252
lradius 20.8133
lwrist -41.5636
lhand 11.8876 32.8762
lfingers 7.12502
lthumb 36.9144 58.9628
rfemur 165.017 -236.026 -224.912
rtibia 29.589
rfoot -96.5728 33.9173
rtoes 61.7161
lfemur 11.0204 6.91557 17.8294
ltibia 45.892
lfoot 53.5224 21.5763
ltoes -15.979
329
root -7.27061 20.0532 1.82823 195.946 97.8139 203.835
lowerback -10.7453 -5.42275 4.38456
upperback -6.82824 -7.28096 -1.53421
thorax -1.92666 -3.73129 -4.63771
lowerneck -3.07481 -16.8084 -17.3378
upperneck 36.3541 -21.1286 -2.11128
head 14.9402 -11.4577 -1.16317
rclavicle 4.33351e-014 3.18055e-014
rhumerus -52.0832 -62.2788 54.308
rradius 14.4311
rwrist 114.68
rhand 31.4584 -7.50223
rfingers 7.12502
rthumb 55.0132 -25.6314
lclavicle 4.33351e-014 3.18055e-014
lhumerus -181.421 -150.604 172.77
lradius 20.5584
lwrist -43.5438
lhand 12.8769 32.6093
lfingers 7.12502
lthumb 37.8496 58.4493
rfemur 165.175 -235.16 -224.769
rtibia 28.7569
rfoot -96.0011 32.7505
rtoes 61.8346
lfemur 11.4442 7.58396 21.1344
ltibia 49.9952
lfoot 58.3277 10.8935
ltoes -28.9565
330
root -7.23802 20.0974 2.1065 195.488 99.4748 204.047
lowerback -11.0012 -5.46528 2.75583
upperback -6.32172 -7.22937 -1.53606
thorax -1.02785 -3.63277 -3.80861
lowerneck -2.8815 -16.563 -17.3042
upperneck 36.6272 -20.8762 -1.89836
head 15.0333 -11.3239 -1.03517
rclavicle -2.50469e-014 -3.18055e-015
rhumerus -50.8331 -60.2059 51.5759
rradius 13.9622
rwrist 108.478
rhand 30.4093 -7.26605
rfingers 7.12502
rthumb 54.0746 -26.0535
lclavicle -2.50469e-014 -3.18055e-015
lhumerus -183.475 -152.06 173.459
lradius 20.0752
lwrist -43.3104
lhand 13.1441 32.7444
lfingers 7.12502
lthumb 38.1019 58.5158
rfemur 165.468 -233.891 -224.513
rtibia 27.9251
rfoot -95.4041 31.6354
rtoes 61.9693
lfemur 11.52 7.91916 24.0753
ltibia 53.5894
lfoot 59.9174 11.6179
ltoes -25.4323
